#!OML:ASF G:\JayActor3\Patient Classification 1\Patient 1\Session 6\male.ASF
:FULLY-SPECIFIED
:DEGREES
1626
root 9.13588 15.2168 -3.24052 25.9699 -54.358 -7.47881
lowerback 35.0735 -1.33416 1.97341
upperback 16.8628 -2.44157 -3.03751
thorax 0.59391 -1.39044 -3.48611
lowerneck -10.7109 0.53003 0.444559
upperneck 18.114 -0.0619041 2.93809
head 7.324 0.213138 0.869965
rclavicle 1.59028e-015 -9.26337e-014
rhumerus -4.88513 40.3418 -89.2785
rradius 124.687
rwrist 13.9332
rhand -48.3037 -13.9167
rfingers 7.12502
rthumb -20.9602 -42.8042
lclavicle 1.59028e-015 -9.26337e-014
lhumerus 0.501773 -39.6981 75.1728
lradius 126.406
lwrist 25.8339
lhand -50.0054 1.97143
lfingers 7.12502
lthumb -22.5943 30.6691
rfemur -61.0679 -4.2393 28.049
rtibia 63.5982
rfoot -24.0646 -15.8332
rtoes 6.09264
lfemur -59.9998 8.73074 -19.8875
ltibia 58.2323
lfoot -17.1365 4.77222
ltoes -0.608336
1627
root 9.13741 15.2173 -3.24473 25.9328 -54.3869 -7.47657
lowerback 35.0622 -1.33539 1.9749
upperback 16.8618 -2.44295 -3.03241
thorax 0.596858 -1.39156 -3.48141
lowerneck -10.6941 0.549581 0.464794
upperneck 18.0621 -0.0309404 2.90799
head 7.30366 0.22608 0.859296
rclavicle 9.54166e-015 3.61788e-014
rhumerus -4.87777 40.3467 -89.2479
rradius 124.707
rwrist 13.9404
rhand -48.3002 -13.9113
rfingers 7.12502
rthumb -20.9568 -42.7991
lclavicle 9.54166e-015 3.61788e-014
lhumerus 0.513376 -39.7063 75.1808
lradius 126.408
lwrist 25.8507
lhand -50.0719 1.87792
lfingers 7.12502
lthumb -22.6581 30.5678
rfemur -61.0368 -4.23292 28.0548
rtibia 63.5834
rfoot -24.0524 -15.8219
rtoes 6.13694
lfemur -59.9601 8.7394 -19.8756
ltibia 58.2154
lfoot -17.124 4.79607
ltoes -0.606362
1628
root 9.13885 15.2179 -3.24914 25.8908 -54.4168 -7.46753
lowerback 35.0443 -1.33409 1.97036
upperback 16.8637 -2.44308 -3.02546
thorax 0.605562 -1.39251 -3.47224
lowerneck -10.681 0.568024 0.479009
upperneck 18.0064 -0.00165978 2.8853
head 7.2828 0.238518 0.851881
rclavicle -3.65764e-014 4.69132e-014
rhumerus -4.86767 40.3507 -89.2131
rradius 124.733
rwrist 13.9526
rhand -48.3005 -13.9129
rfingers 7.12502
rthumb -20.9571 -42.8008
lclavicle -3.65764e-014 4.69132e-014
lhumerus 0.531732 -39.7137 75.1815
lradius 126.417
lwrist 25.8643
lhand -50.0561 1.80388
lfingers 7.12502
lthumb -22.6429 30.4957
rfemur -61.0059 -4.2239 28.0557
rtibia 63.5675
rfoot -24.0421 -15.8139
rtoes 6.18011
lfemur -59.9201 8.74589 -19.8666
ltibia 58.1952
lfoot -17.1097 4.823
ltoes -0.613607
1629
root 9.13999 15.2185 -3.25388 25.8443 -54.4503 -7.45295
lowerback 35.022 -1.32849 1.96102
upperback 16.8679 -2.43958 -3.01846
thorax 0.618583 -1.39196 -3.4618
lowerneck -10.6736 0.58366 0.488895
upperneck 17.9503 0.0228706 2.87166
head 7.26292 0.249291 0.847708
rclavicle 3.49861e-014 -5.20816e-014
rhumerus -4.85671 40.349 -89.1807
rradius 124.764
rwrist 13.9661
rhand -48.3009 -13.9176
rfingers 7.12502
rthumb -20.9575 -42.8054
lclavicle 3.49861e-014 -5.20816e-014
lhumerus 0.55839 -39.7268 75.1751
lradius 126.433
lwrist 25.872
lhand -49.9752 1.78849
lfingers 7.12502
lthumb -22.5653 30.4897
rfemur -60.9739 -4.20936 28.0521
rtibia 63.551
rfoot -24.037 -15.8087
rtoes 6.22746
lfemur -59.8781 8.75276 -19.8591
ltibia 58.1723
lfoot -17.0972 4.84906
ltoes -0.612609
1630
root 9.14089 15.219 -3.25895 25.7948 -54.487 -7.43573
lowerback 34.9992 -1.3225 1.95144
upperback 16.8724 -2.43595 -3.01613
thorax 0.631845 -1.39111 -3.45618
lowerneck -10.6739 0.59914 0.498258
upperneck 17.8979 0.045328 2.86696
head 7.24564 0.259919 0.846395
rclavicle 3.18055e-015 -3.61788e-014
rhumerus -4.84822 40.3445 -89.1623
rradius 124.798
rwrist 13.9872
rhand -48.2998 -13.9262
rfingers 7.12502
rthumb -20.9564 -42.8141
lclavicle 3.18055e-015 -3.61788e-014
lhumerus 0.587839 -39.7428 75.1579
lradius 126.456
lwrist 25.8738
lhand -49.9148 1.78992
lfingers 7.12502
lthumb -22.5073 30.4982
rfemur -60.9403 -4.18916 28.0459
rtibia 63.5348
rfoot -24.0357 -15.806
rtoes 6.26641
lfemur -59.8333 8.7601 -19.8514
ltibia 58.1467
lfoot -17.0864 4.8767
ltoes -0.611029
1631
root 9.14175 15.2196 -3.26418 25.7452 -54.5255 -7.41804
lowerback 34.978 -1.31976 1.9474
upperback 16.8754 -2.43489 -3.02088
thorax 0.642237 -1.39077 -3.46001
lowerneck -10.6779 0.615245 0.512026
upperneck 17.8455 0.0668225 2.86723
head 7.22904 0.270838 0.845884
rclavicle 3.49861e-014 1.94809e-014
rhumerus -4.84135 40.3383 -89.1601
rradius 124.832
rwrist 14.0113
rhand -48.3017 -13.9257
rfingers 7.12502
rthumb -20.9582 -42.8134
lclavicle 3.49861e-014 1.94809e-014
lhumerus 0.617594 -39.7608 75.1339
lradius 126.484
lwrist 25.8683
lhand -49.8688 1.83815
lfingers 7.12502
lthumb -22.4632 30.5518
rfemur -60.9073 -4.16613 28.0391
rtibia 63.5195
rfoot -24.0379 -15.8044
rtoes 6.30762
lfemur -59.7874 8.765 -19.8414
ltibia 58.1193
lfoot -17.0781 4.90422
ltoes -0.587866
1632
root 9.14283 15.2199 -3.26933 25.6935 -54.5656 -7.39476
lowerback 34.9555 -1.317 1.94172
upperback 16.8767 -2.43406 -3.02477
thorax 0.651221 -1.39067 -3.46198
lowerneck -10.6851 0.630101 0.525906
upperneck 17.7895 0.0871548 2.86553
head 7.21189 0.281077 0.844601
rclavicle 3.97569e-014 -2.34566e-014
rhumerus -4.8327 40.3324 -89.1562
rradius 124.869
rwrist 14.0377
rhand -48.3058 -13.9136
rfingers 7.12502
rthumb -20.9622 -42.8008
lclavicle 3.97569e-014 -2.34566e-014
lhumerus 0.64299 -39.7786 75.1172
lradius 126.518
lwrist 25.8601
lhand -49.9027 1.83855
lfingers 7.12502
lthumb -22.4957 30.5482
rfemur -60.8799 -4.14505 28.0294
rtibia 63.5066
rfoot -24.0379 -15.803
rtoes 6.34911
lfemur -59.7432 8.76448 -19.8341
ltibia 58.0902
lfoot -17.0718 4.93681
ltoes -0.564505
1633
root 9.14427 15.2201 -3.27431 25.6409 -54.6043 -7.368
lowerback 34.9318 -1.31584 1.93424
upperback 16.8771 -2.43536 -3.02481
thorax 0.65983 -1.3919 -3.45833
lowerneck -10.6925 0.644641 0.540259
upperneck 17.7258 0.108742 2.85652
head 7.19228 0.291301 0.840941
rclavicle 2.38542e-014 2.38542e-015
rhumerus -4.81852 40.3344 -89.1458
rradius 124.906
rwrist 14.0763
rhand -48.3095 -13.9106
rfingers 7.12502
rthumb -20.9658 -42.7975
lclavicle 2.38542e-014 2.38542e-015
lhumerus 0.65744 -39.7918 75.1119
lradius 126.558
lwrist 25.8507
lhand -49.9361 1.86597
lfingers 7.12502
lthumb -22.5278 30.5718
rfemur -60.8576 -4.13017 28.0191
rtibia 63.4957
rfoot -24.0348 -15.8005
rtoes 6.38273
lfemur -59.7012 8.75919 -19.8299
ltibia 58.0599
lfoot -17.0652 4.97907
ltoes -0.570057
1634
root 9.14599 15.2203 -3.27916 25.5898 -54.6427 -7.34049
lowerback 34.9066 -1.31445 1.92323
upperback 16.8775 -2.43712 -3.01943
thorax 0.669267 -1.39388 -3.44705
lowerneck -10.6991 0.657089 0.553106
upperneck 17.6508 0.129779 2.83992
head 7.16887 0.300491 0.834948
rclavicle 4.13472e-014 -1.09729e-013
rhumerus -4.79766 40.3438 -89.1243
rradius 124.945
rwrist 14.1221
rhand -48.3158 -13.903
rfingers 7.12502
rthumb -20.9718 -42.7892
lclavicle 4.13472e-014 -1.09729e-013
lhumerus 0.663222 -39.8012 75.1198
lradius 126.603
lwrist 25.8402
lhand -49.9016 1.92403
lfingers 7.12502
lthumb -22.4946 30.6338
rfemur -60.8388 -4.11889 28.0092
rtibia 63.4858
rfoot -24.0284 -15.7944
rtoes 6.41471
lfemur -59.6603 8.75351 -19.8281
ltibia 58.0282
lfoot -17.0597 5.02442
ltoes -0.586979
1635
root 9.14787 15.2205 -3.28398 25.5379 -54.6832 -7.31148
lowerback 34.8811 -1.31325 1.90688
upperback 16.8784 -2.44064 -3.01206
thorax 0.679613 -1.39719 -3.43037
lowerneck -10.7062 0.668261 0.557447
upperneck 17.5669 0.150204 2.82766
head 7.14266 0.3092 0.831673
rclavicle -1.43125e-014 -4.25399e-014
rhumerus -4.77209 40.3616 -89.097
rradius 124.987
rwrist 14.1763
rhand -48.3224 -13.9017
rfingers 7.12502
rthumb -20.9782 -42.7872
lclavicle -1.43125e-014 -4.25399e-014
lhumerus 0.659468 -39.8046 75.132
lradius 126.652
lwrist 25.8292
lhand -49.7672 2.00235
lfingers 7.12502
lthumb -22.3657 30.7277
rfemur -60.8207 -4.10812 27.9981
rtibia 63.4755
rfoot -24.0182 -15.7891
rtoes 6.43607
lfemur -59.6186 8.75133 -19.8307
ltibia 57.9949
lfoot -17.0542 5.07404
ltoes -0.628625
1636
root 9.14972 15.2208 -3.28894 25.4871 -54.7257 -7.28254
lowerback 34.8553 -1.31053 1.88718
upperback 16.8797 -2.44333 -3.00442
thorax 0.690551 -1.40035 -3.41193
lowerneck -10.7084 0.674886 0.553369
upperneck 17.4678 0.16445 2.82742
head 7.1107 0.315378 0.83301
rclavicle 1.59028e-015 -3.77691e-014
rhumerus -4.74696 40.3809 -89.069
rradius 125.033
rwrist 14.2341
rhand -48.335 -13.9077
rfingers 7.12502
rthumb -20.9903 -42.7919
lclavicle 1.59028e-015 -3.77691e-014
lhumerus 0.654639 -39.8073 75.1467
lradius 126.702
lwrist 25.8162
lhand -49.6046 2.04196
lfingers 7.12502
lthumb -22.2095 30.786
rfemur -60.803 -4.09472 27.9866
rtibia 63.4639
rfoot -24.0074 -15.7847
rtoes 6.44946
lfemur -59.5771 8.75628 -19.8369
ltibia 57.9605
lfoot -17.048 5.12217
ltoes -0.678495
1637
root 9.15144 15.2213 -3.29413 25.4356 -54.7704 -7.25414
lowerback 34.8329 -1.30462 1.86526
upperback 16.8811 -2.44288 -2.99655
thorax 0.700764 -1.40216 -3.39293
lowerneck -10.7058 0.674591 0.541921
upperneck 17.3558 0.16881 2.84047
head 7.07384 0.31745 0.838862
rclavicle 9.85972e-014 -2.3059e-014
rhumerus -4.72631 40.3975 -89.0429
rradius 125.081
rwrist 14.2928
rhand -48.3546 -13.9205
rfingers 7.12502
rthumb -21.0091 -42.8026
lclavicle 9.85972e-014 -2.3059e-014
lhumerus 0.657871 -39.8152 75.1609
lradius 126.752
lwrist 25.7985
lhand -49.4222 2.04512
lfingers 7.12502
lthumb -22.0345 30.8099
rfemur -60.782 -4.07858 27.9755
rtibia 63.4497
rfoot -23.994 -15.7853
rtoes 6.44448
lfemur -59.5333 8.76652 -19.8442
ltibia 57.9257
lfoot -17.0435 5.16814
ltoes -0.730447
1638
root 9.15309 15.2219 -3.29946 25.3869 -54.8149 -7.2294
lowerback 34.8145 -1.30062 1.84303
upperback 16.881 -2.44499 -2.99344
thorax 0.7076 -1.40503 -3.37783
lowerneck -10.6971 0.671466 0.529638
upperneck 17.2311 0.1668 2.87085
head 7.03193 0.317774 0.849761
rclavicle -4.77083e-015 2.38542e-014
rhumerus -4.71352 40.419 -89.0312
rradius 125.129
rwrist 14.3531
rhand -48.3853 -13.9402
rfingers 7.12502
rthumb -21.0386 -42.819
lclavicle -4.77083e-015 2.38542e-014
lhumerus 0.660703 -39.8231 75.1657
lradius 126.806
lwrist 25.7741
lhand -49.2692 2.03314
lfingers 7.12502
lthumb -21.8875 30.8152
rfemur -60.7599 -4.06064 27.9671
rtibia 63.4337
rfoot -23.981 -15.7876
rtoes 6.43722
lfemur -59.4896 8.77688 -19.8484
ltibia 57.8918
lfoot -17.0407 5.21556
ltoes -0.780215
1639
root 9.1548 15.2225 -3.3048 25.3456 -54.8559 -7.21252
lowerback 34.8005 -1.29915 1.82495
upperback 16.8792 -2.44888 -2.99168
thorax 0.710718 -1.40846 -3.36561
lowerneck -10.6844 0.66269 0.514626
upperneck 17.0954 0.155645 2.91498
head 6.9859 0.314631 0.864623
rclavicle 1.00187e-013 5.92378e-014
rhumerus -4.70802 40.4445 -89.0268
rradius 125.177
rwrist 14.412
rhand -48.4276 -13.9583
rfingers 7.12502
rthumb -21.0792 -42.8326
lclavicle 1.00187e-013 5.92378e-014
lhumerus 0.667347 -39.8333 75.1694
lradius 126.861
lwrist 25.7411
lhand -49.1181 2.05683
lfingers 7.12502
lthumb -21.7424 30.8557
rfemur -60.7374 -4.04291 27.9647
rtibia 63.4154
rfoot -23.9687 -15.7894
rtoes 6.43963
lfemur -59.448 8.78163 -19.8433
ltibia 57.86
lfoot -17.0422 5.25794
ltoes -0.778203
1640
root 9.15675 15.223 -3.30995 25.3076 -54.8938 -7.1956
lowerback 34.7876 -1.30137 1.8099
upperback 16.8753 -2.45617 -2.99139
thorax 0.710697 -1.41324 -3.35539
lowerneck -10.6685 0.648485 0.494763
upperneck 16.9529 0.136365 2.97026
head 6.93726 0.308154 0.883085
rclavicle 1.11319e-014 5.725e-014
rhumerus -4.7093 40.4754 -89.026
rradius 125.225
rwrist 14.4731
rhand -48.4836 -13.9669
rfingers 7.12502
rthumb -21.1331 -42.8351
lclavicle 1.11319e-014 5.725e-014
lhumerus 0.665739 -39.8461 75.1724
lradius 126.921
lwrist 25.6988
lhand -48.9914 2.09465
lfingers 7.12502
lthumb -21.6208 30.9076
rfemur -60.7205 -4.02888 27.9634
rtibia 63.3973
rfoot -23.9541 -15.7915
rtoes 6.44769
lfemur -59.4123 8.77484 -19.8343
ltibia 57.8306
lfoot -17.0466 5.30454
ltoes -0.748567
